<svg width="34" height="32" viewBox="0 0 34 32" fill="none" xmlns="http://www.w3.org/2000/svg">
<path d="M2.32483 3.94837C1.24863 3.69966 0.577814 2.6256 0.826529 1.5494C1.07524 0.473193 2.1493 -0.197619 3.22551 0.0510958L2.32483 3.94837ZM31.6397 27.9944L33.6396 28.0131L33.6099 31.1772L30.7647 29.7928L31.6397 27.9944ZM18.5126 23.8315L16.7142 22.9565L18.4642 19.3596L20.2626 20.2347L18.5126 23.8315ZM29.768 14.3149L29.7867 12.315L33.7866 12.3525L33.7678 14.3524L29.768 14.3149ZM3.22551 0.0510958C17.9125 3.44531 26.5894 13.0945 33.4369 27.1168L29.8425 28.872C23.2856 15.4447 15.3937 6.96864 2.32483 3.94837L3.22551 0.0510958ZM20.2626 20.2347L32.5147 26.1959L30.7647 29.7928L18.5126 23.8315L20.2626 20.2347ZM33.7678 14.3524L33.6396 28.0131L29.6398 27.9756L29.768 14.3149L33.7678 14.3524Z" fill="white"/>
</svg>
